{"title":"Game of Thrones S06E05 PT BR Dublado HDTV 1080p","uid":14680894,"size":2513085935,"categoryP":"video","categoryS":"hd___tv_shows","magnet":"?xt=urn:btih:5b595b0fd113172c1cc6329b7e67383488406397&amp;dn=Game+of+Thrones+S06E05+PT+BR+Dublado+HDTV+1080p&amp;tr=udp%3A%2F%2Ftracker.leechers-paradise.org%3A6969&amp;tr=udp%3A%2F%2Fzer0day.ch%3A1337&amp;tr=udp%3A%2F%2Fopen.demonii.com%3A1337&amp;tr=udp%3A%2F%2Ftracker.coppersurfer.tk%3A6969&amp;tr=udp%3A%2F%2Fexodus.desync.com%3A6969","seeders":1,"leechers":0,"uploader":"GOT_BR","files":1,"time":1463989542,"description":"Game of Thrones - 6a. Temporada - Episódio 05\r\nQualidade original HBO em 1080p.\r\nAltíssima qualidade de som e vídeo.\r\n\r\nDuration: 00:56:47.30, start: 0.000000, bitrate: 5900 kb/s\r\n    Stream #0:0(und): Video: h264 (High) (avc1 / 0x31637661), yuv420p, 1920x1080 [SAR 1:1 DAR 16:9], 5697 kb/s, 59.89 fps, 59.94 tbr, 90k tbn, 59.94 tbc (default)\r\n    Metadata:\r\n      handler_name    : VideoHandler\r\n    Stream #0:1(por): Audio: ac3 (ac-3 / 0x332D6361), 48000 Hz, stereo, fltp, 192 kb/s","torrent":{"xt":"urn:btih:5b595b0fd113172c1cc6329b7e67383488406397","amp;dn":"Game+of+Thrones+S06E05+PT+BR+Dublado+HDTV+1080p","amp;tr":["udp%3A%2F%2Ftracker.leechers-paradise.org%3A6969","udp%3A%2F%2Fzer0day.ch%3A1337","udp%3A%2F%2Fopen.demonii.com%3A1337","udp%3A%2F%2Ftracker.coppersurfer.tk%3A6969","udp%3A%2F%2Fexodus.desync.com%3A6969"],"infoHash":"5b595b0fd113172c1cc6329b7e67383488406397","infoHashBuffer":{"type":"Buffer","data":[91,89,91,15,209,19,23,44,28,198,50,155,126,103,56,52,136,64,99,151]},"announce":[],"urlList":[]}}